<svg xmlns="http://www.w3.org/2000/svg" xmlns:xlink="http://www.w3.org/1999/xlink" width="257" height="138" viewBox="0 0 257 138"><defs><path id="a" d="M189.99 748.9c0-40.49 19.26-76.5 49.17-99.64l34.85 42.35c-18.66 14.64-28.43 31.95-28.43 57.29z"/><path id="b" d="M245.12 644.96a126.41 126.41 0 0 1 72.92-23 126.2 126.2 0 0 1 72.9 23L356.42 688c-14.68-9.92-26.3-12.2-38.38-12.2-12.06 0-26.2 4.35-38.36 12.2z"/><path id="c" d="M395.25 649.26a126.87 126.87 0 0 1 47.79 99.64h-53.99c0-25.34-10.4-43.4-27.48-57.3z"/><path id="d" d="M327.66 750.86a9.15 9.15 0 0 1-12.8 2.58L273.84 716l51.32 21.9a9.43 9.43 0 0 1 2.5 12.96z"/></defs><g transform="translate(-188 -620)"><use fill="#ffc815" xlink:href="#a"/></g><g transform="translate(-188 -620)"><use fill="#a3cd3b" xlink:href="#b"/></g><g transform="translate(-188 -620)"><use fill="#0093d7" xlink:href="#c"/></g><g transform="translate(-188 -620)"><use fill="#3e3d40" xlink:href="#d"/></g></svg>